<svg xmlns="http://www.w3.org/2000/svg" version="1.1" xmlns:xlink="http://www.w3.org/1999/xlink" xmlns:svgjs="http://svgjs.dev/svgjs" viewBox="0 0 800 800"><defs><linearGradient x1="50%" y1="0%" x2="50%" y2="100%" id="ffflurry-grad" gradientTransform="rotate(270)"><stop stop-color="hsl(238, 82%, 13%)" stop-opacity="1" offset="0%"></stop><stop stop-color="hsl(0, 0%, 100%)" stop-opacity="1" offset="45%"></stop><stop stop-color="hsl(218, 69%, 16%)" stop-opacity="1" offset="100%"></stop></linearGradient></defs><rect width="100%" height="100%" fill="#151521"></rect><g fill="hsl(0, 0%, 94%)"><rect width="953" height="1" x="-21.5" y="198.5" rx="0.5" transform="rotate(332, 455, 199)" opacity="0.27"></rect><rect width="202" height="1" x="82" y="457.5" rx="0.5" transform="rotate(332, 183, 458)" opacity="0.85"></rect><rect width="105" height="1" x="27.5" y="568.5" rx="0.5" transform="rotate(332, 80, 569)" opacity="0.88"></rect><rect width="990" height="1" x="-43" y="726.5" rx="0.5" transform="rotate(332, 452, 727)" opacity="0.18"></rect><rect width="256" height="1" x="226" y="337.5" rx="0.5" transform="rotate(332, 354, 338)" opacity="0.96"></rect><rect width="192" height="1" x="645" y="254.5" rx="0.5" transform="rotate(332, 741, 255)" opacity="0.34"></rect><rect width="142" height="1" x="617" y="498.5" rx="0.5" transform="rotate(332, 688, 499)" opacity="0.71"></rect><rect width="57" height="1" x="63.5" y="31.5" rx="0.5" transform="rotate(332, 92, 32)" opacity="0.14"></rect><rect width="450" height="1" x="-185" y="117.5" rx="0.5" transform="rotate(332, 40, 118)" opacity="0.74"></rect><rect width="699" height="1" x="316.5" y="129.5" rx="0.5" transform="rotate(332, 666, 130)" opacity="0.44"></rect><rect width="273" height="1" x="161.5" y="485.5" rx="0.5" transform="rotate(332, 298, 486)" opacity="0.21"></rect><rect width="432" height="1" x="524" y="67.5" rx="0.5" transform="rotate(332, 740, 68)" opacity="0.81"></rect><rect width="258" height="1" x="595" y="375.5" rx="0.5" transform="rotate(332, 724, 376)" opacity="0.07"></rect><rect width="449" height="1" x="-164.5" y="724.5" rx="0.5" transform="rotate(332, 60, 725)" opacity="0.83"></rect><rect width="345" height="1" x="-96.5" y="361.5" rx="0.5" transform="rotate(332, 76, 362)" opacity="0.22"></rect><rect width="179" height="1" x="234.5" y="109.5" rx="0.5" transform="rotate(332, 324, 110)" opacity="0.89"></rect><rect width="447" height="1" x="229.5" y="549.5" rx="0.5" transform="rotate(332, 453, 550)" opacity="0.62"></rect><rect width="1010" height="1" x="33" y="400.5" rx="0.5" transform="rotate(332, 538, 401)" opacity="0.86"></rect><rect width="383" height="1" x="331.5" y="55.5" rx="0.5" transform="rotate(332, 523, 56)" opacity="0.63"></rect><rect width="240" height="1" x="170" y="640.5" rx="0.5" transform="rotate(332, 290, 641)" opacity="0.97"></rect><rect width="715" height="1" x="-155.5" y="730.5" rx="0.5" transform="rotate(332, 202, 731)" opacity="0.49"></rect><rect width="197" height="1" x="577.5" y="680.5" rx="0.5" transform="rotate(332, 676, 681)" opacity="0.30"></rect><rect width="483" height="1" x="352.5" y="236.5" rx="0.5" transform="rotate(332, 594, 237)" opacity="0.29"></rect><rect width="461" height="1" x="-74.5" y="232.5" rx="0.5" transform="rotate(332, 156, 233)" opacity="0.85"></rect><rect width="730" height="1" x="-179" y="77.5" rx="0.5" transform="rotate(332, 186, 78)" opacity="0.15"></rect></g></svg>